<svg class="rotate-once w-full h-full" version="1.1" id="svg1" width="100" height="100" viewBox="0 0 1024 1024" xmlns="http://www.w3.org/2000/svg" xmlns:svg="http://www.w3.org/2000/svg">
  <defs id="defs1"></defs>
   
  <g id="g1" style="display:inline">
    <g id="g14">
      <path style="display:inline;fill:#0d9488;fill-opacity:1" d="m 451.01979,940.66816 c -4.85319,0.20057 -9.24888,-0.24117 -12.3958,-1.2457 -2.68181,-0.85606 -6.73181,-2.72037 -9,-4.14293 C 427.35579,933.85698 397.6,904.61528 363.5,870.29797 c -40.72208,-40.98158 -62.8319,-63.94874 -64.424,-66.92215 -1.3332,-2.48988 -2.61944,-6.88381 -2.85831,-9.76429 -0.32087,-3.86935 0.12417,-6.53543 1.70394,-10.20772 1.78036,-4.13854 11.2973,-14.12009 56.85831,-59.63402 44.45134,-44.4054 55.74706,-55.1735 60.19276,-57.38113 3.8986,-1.93596 7.53917,-2.85023 12.6573,-3.1787 5.47034,-0.35106 8.81728,0.0407 14.0273,1.64198 3.91695,1.20385 8.97348,3.72866 11.82614,5.905 2.74089,2.09106 6.69512,6.252 8.78719,9.24653 2.09206,2.99452 4.51554,7.89304 5.38549,10.88558 1.07721,3.70546 1.43705,7.86041 1.12811,13.02597 -0.3331,5.56968 -1.20676,9.17915 -3.28819,13.58498 -2.38514,5.04866 -7.3543,10.55721 -31.34007,34.74191 -15.67802,15.80805 -28.31435,28.9287 -28.08073,29.15701 0.23362,0.22831 4.25327,1.99738 8.93256,3.93127 4.6793,1.93389 13.84465,5.13383 20.36747,7.11098 6.52281,1.97716 17.54429,4.75014 24.49219,6.16219 6.9479,1.41205 18.25754,3.19946 25.13254,3.97201 6.875,0.77256 22.18844,1.40915 34.02986,1.41464 13.02068,0.006 26.45839,-0.58392 34,-1.49271 6.85858,-0.82648 19.22014,-2.90172 27.47014,-4.61162 8.25,-1.70991 21.18655,-5.10085 28.74788,-7.53542 7.56134,-2.43457 18.55539,-6.44066 24.43124,-8.90242 5.87585,-2.46176 16.3393,-7.42777 23.25212,-11.03557 6.91282,-3.6078 18.19376,-10.275 25.06876,-14.81599 6.875,-4.54099 17.45,-12.32095 23.5,-17.2888 6.05,-4.96785 16.05847,-14.15684 22.24105,-20.41997 6.18258,-6.26313 14.6599,-15.66251 18.83849,-20.88751 4.1786,-5.225 10.87383,-14.45 14.87831,-20.5 4.00447,-6.05 9.70681,-15.5 12.67185,-21 2.96505,-5.5 7.36059,-14.26 9.76786,-19.46667 2.40728,-5.20666 6.10982,-14.3247 8.22788,-20.2623 2.11807,-5.9376 5.0084,-14.91205 6.42297,-19.94322 1.41458,-5.03117 3.63455,-14.36313 4.93329,-20.7377 1.29873,-6.37456 2.95405,-15.86511 3.67847,-21.09011 0.84361,-6.08461 1.30097,-19.56641 1.27217,-37.5 -0.0383,-23.88184 -0.37402,-30.11691 -2.28223,-42.39318 -1.2305,-7.91624 -3.9735,-21.19124 -6.09556,-29.5 C 797.93248,436.29807 794.3105,424.325 792.0057,418 c -2.3048,-6.325 -7.45316,-18.2758 -11.44079,-26.55733 -3.98764,-8.28154 -10.39365,-20.0099 -14.23559,-26.06303 -3.84194,-6.05313 -11.04182,-16.37733 -15.99974,-22.94267 -4.95792,-6.56533 -11.99916,-15.18918 -15.6472,-19.1641 -3.64804,-3.97493 -6.91993,-8.37116 -7.27087,-9.76942 -0.35094,-1.39825 -0.10504,-3.82913 0.54645,-5.40195 0.65148,-1.57282 9.36496,-10.94852 19.36328,-20.83489 12.95679,-12.81171 19.01483,-18.12968 21.0893,-18.51293 1.60079,-0.29574 4.15005,-0.10562 5.66502,0.4225 1.51496,0.52812 5.52757,4.08044 8.9169,7.89405 3.38933,3.8136 8.83374,10.13109 12.09867,14.03885 3.26494,3.90776 9.24983,11.66935 13.29977,17.24797 4.04993,5.57862 10.72957,15.54295 14.84365,22.14295 4.11408,6.6 10.43346,17.625 14.04307,24.5 3.60961,6.875 9.04652,18.43199 12.08203,25.68221 3.0355,7.25021 7.58576,19.60038 10.11167,27.44482 2.52592,7.84444 5.6672,18.56244 6.98063,23.81779 1.31342,5.25535 3.31101,14.28018 4.43907,20.05518 1.12807,5.775 2.84355,15.9 3.81219,22.5 1.40674,9.58505 1.75817,18.64113 1.7463,45 -0.0116,25.74305 -0.3997,35.8588 -1.76488,46 -0.96251,7.15 -2.90188,18.625 -4.3097,25.5 -1.40782,6.875 -4.5152,19.25 -6.90528,27.5 -2.39008,8.25 -6.60139,20.95268 -9.35847,28.22818 -2.75708,7.2755 -8.33009,20.1005 -12.38447,28.5 -4.05437,8.3995 -10.43736,20.22182 -14.18441,26.27182 -3.74705,6.05 -9.84333,15.275 -13.54728,20.5 -3.70396,5.225 -9.7416,13.325 -13.41699,18 -3.67538,4.675 -12.31586,14.46049 -19.20106,21.74553 -6.88521,7.28504 -17.5492,17.58266 -23.69776,22.88361 -6.14857,5.30094 -15.22921,12.78737 -20.17921,16.63649 -4.95,3.84913 -13.5,10.01554 -19,13.70314 -5.5,3.68761 -14.275,9.20702 -19.5,12.26536 -5.225,3.05835 -14.92745,8.27792 -21.56101,11.59906 -6.63356,3.32113 -17.62192,8.32429 -24.4186,11.11811 -6.79667,2.79383 -18.46922,7.04652 -25.93899,9.45043 -7.46977,2.40391 -20.5564,5.98793 -29.0814,7.9645 -8.525,1.97656 -22.925,4.60735 -32,5.84619 -13.94301,1.90339 -20.91663,2.24969 -45,2.23466 -21.53025,-0.0134 -31.43463,-0.43771 -40.5,-1.73487 -6.6,-0.9444 -13.125,-2.0063 -14.5,-2.35978 -1.91381,-0.492 -0.56463,1.35669 5.75399,7.88434 4.88729,5.04896 9.15011,10.51267 10.45096,13.39513 1.67281,3.70666 2.19756,6.77676 2.19943,12.8681 0.002,5.97977 -0.57321,9.45495 -2.27713,13.76154 -1.4108,3.56572 -4.14855,7.68034 -7.1835,10.79621 -2.80442,2.87919 -7.36569,6.1617 -10.65404,7.66715 -4.21565,1.92999 -7.75684,2.71543 -13.26992,2.94326 z M 252.1849,753.96086 c -0.37669,-0.0215 -2.0349,-0.6424 -3.6849,-1.37971 -1.65,-0.73731 -7.05,-6.15351 -12,-12.036 -4.95,-5.88248 -11.7977,-14.59912 -15.2171,-19.37029 C 217.86349,716.40369 211.71986,706.875 207.63039,700 c -4.08948,-6.875 -10.15652,-17.96018 -13.48233,-24.63373 -3.3258,-6.67356 -7.86321,-16.49786 -10.08313,-21.83178 -2.21992,-5.33393 -6.24555,-16.52375 -8.94584,-24.86627 C 172.4188,620.3257 169.05442,608.325 167.6427,602 c -1.41173,-6.325 -3.25546,-15.47698 -4.09719,-20.33774 -0.84174,-4.86076 -2.26658,-15.66076 -3.16632,-24 -0.98942,-9.17045 -1.63896,-23.65862 -1.64366,-36.66226 -0.004,-11.825 0.53609,-26.9 1.2008,-33.5 0.66471,-6.6 2.32292,-18.525 3.68491,-26.5 1.36199,-7.975 3.82286,-19.9 5.4686,-26.5 1.64574,-6.6 4.81922,-17.625 7.05218,-24.5 2.23296,-6.875 6.00732,-17.28024 8.38746,-23.12275 2.38014,-5.84252 7.06395,-16.08156 10.40846,-22.75344 3.3445,-6.67187 9.07222,-17.19164 12.72825,-23.37725 3.65603,-6.18561 9.61191,-15.52156 13.23528,-20.74656 3.62337,-5.225 10.15094,-14 14.5057,-19.5 4.35477,-5.5 15.60715,-17.70327 25.0053,-27.11838 9.39814,-9.41511 21.66355,-20.73012 27.25646,-25.14447 5.59291,-4.41435 15.4952,-11.58639 22.00509,-15.93786 6.50989,-4.35148 16.55887,-10.56894 22.33107,-13.81659 5.7722,-3.24764 17.46991,-9.13094 25.99491,-13.074 8.525,-3.94305 21.36425,-9.20213 28.53167,-11.68684 7.16741,-2.4847 18.86741,-6.12049 26,-8.07952 7.13258,-1.95904 18.81833,-4.72154 25.96833,-6.1389 7.15,-1.41737 20.2,-3.54437 29,-4.72669 13.05746,-1.75432 21.14945,-2.1572 44,-2.19066 21.13141,-0.0309 31.32246,0.39083 41.54409,1.71935 7.44925,0.96819 19.82425,3.03378 27.5,4.59019 7.67575,1.55642 14.07788,2.73215 14.22695,2.61274 0.14907,-0.11941 -9.35198,-9.62015 -21.11345,-21.11274 C 557.34591,144.45684 551.60883,138.1953 549.47283,134 c -2.11014,-4.14452 -2.91306,-7.3796 -3.2579,-13.12663 -0.3321,-5.53481 0.011,-9.03748 1.2509,-12.77048 0.93968,-2.82912 3.44992,-7.3469 5.57832,-10.039529 2.75473,-3.484996 5.82049,-5.856323 10.6395,-8.229521 6.15924,-3.033217 7.5847,-3.33384 15.808,-3.33384 8.15601,0 9.67137,0.312922 15.52333,3.205571 5.81315,2.873462 12.87178,9.607713 68.13097,64.999999 39.28931,39.38394 62.36556,63.24508 63.63017,65.79443 1.09131,2.2 2.29989,5.89592 2.68572,8.21315 0.47275,2.83927 0.1576,6.10019 -0.96645,10 -1.64334,5.70141 -2.42333,6.54422 -52.83168,57.08613 -44.99025,45.10945 -51.92564,51.67571 -57.47838,54.41911 -4.96554,2.45328 -7.99171,3.21693 -14.16405,3.57424 -6.0864,0.35233 -9.39894,-0.0163 -14.74861,-1.64119 -5.58584,-1.69665 -8.27657,-3.30765 -14.13431,-8.46254 -3.97929,-3.50183 -8.32394,-7.96937 -9.65478,-9.92788 -1.33084,-1.9585 -3.22158,-5.51844 -4.20164,-7.91097 -1.2305,-3.00387 -1.78028,-6.98048 -1.77657,-12.85005 0.005,-7.20114 0.41769,-9.34044 2.70373,-14 2.01702,-4.11124 8.20197,-11.14371 24.49463,-27.85109 11.98795,-12.29309 21.4843,-22.54137 21.103,-22.77395 -0.38129,-0.23258 -7.60514,-2.1863 -16.05298,-4.3416 -8.44785,-2.1553 -20.73588,-4.8335 -27.30674,-5.95155 -6.57085,-1.11805 -17.57201,-2.54789 -24.44701,-3.17743 -7.56448,-0.69266 -21.58135,-0.93201 -35.5,-0.60617 -15.82052,0.37036 -27.21404,1.1853 -36.5,2.61073 -7.425,1.13977 -19.125,3.44496 -26,5.12265 -6.875,1.67769 -15.875,4.12028 -20,5.42799 -4.125,1.30771 -11.28306,3.77898 -15.90681,5.4917 -4.62374,1.71273 -11.59874,4.51108 -15.5,6.21857 -3.90125,1.70749 -12.29891,5.90864 -18.66147,9.33589 -6.36255,3.42725 -16.21398,9.28488 -21.89208,13.01695 -5.67809,3.73207 -14.64736,10.23983 -19.93172,14.4617 -5.28436,4.22187 -14.29766,12.14001 -20.02956,17.59587 -5.7319,5.45586 -14.30977,14.44227 -19.06194,19.9698 -4.75217,5.52754 -11.82337,14.52754 -15.71378,20 -3.89041,5.47247 -8.98712,13.0968 -11.32602,16.94296 -2.3389,3.84616 -7.07454,12.39616 -10.52364,19 -3.4491,6.60384 -8.33386,17.27101 -10.85502,23.70482 -2.52116,6.4338 -6.37787,17.83273 -8.57048,25.33094 -2.1926,7.49822 -4.91307,18.43419 -6.0455,24.30217 -1.13242,5.86798 -2.72685,16.29405 -3.54318,23.16905 -0.83707,7.04965 -1.50204,21.43858 -1.52506,33 -0.0224,11.275 0.44936,24.775 1.04847,30 0.59911,5.225 1.76761,13.775 2.59667,19 0.82906,5.225 2.86349,15.02933 4.52095,21.78741 1.65747,6.75807 4.56488,16.74416 6.46091,22.19131 1.89602,5.44714 5.51143,14.76781 8.03423,20.71259 2.52281,5.94478 6.87123,15.08369 9.66316,20.30869 2.79194,5.225 7.98605,14 11.54248,19.5 3.55643,5.5 8.75941,12.925 11.56219,16.5 2.80278,3.575 7.19051,8.975 9.75051,12 2.56001,3.025 5.19124,6.53889 5.8472,7.80865 0.65595,1.26976 0.92221,3.5399 0.59169,5.04476 -0.39166,1.78318 -6.77089,8.88557 -18.31658,20.39296 -9.74359,9.71128 -18.98241,18.12864 -20.53072,18.70525 -1.5483,0.57661 -3.1233,1.03077 -3.5,1.00924 z M 511,664.96231 c -4.09775,-0.009 -8.9554,-0.85088 -13.14379,-2.27852 -3.65408,-1.24552 -8.52099,-3.56548 -10.81534,-5.15546 -2.29435,-1.58999 -6.35996,-5.28537 -9.03469,-8.21195 -2.67473,-2.92658 -5.96877,-7.68251 -7.32008,-10.56872 -1.35131,-2.88621 -2.95849,-7.63231 -3.57151,-10.54688 C 466.50156,625.28621 466,620.54325 466,617.66088 c 0,-2.88238 0.6984,-7.92273 1.552,-11.20078 0.8536,-3.27806 2.73464,-7.97852 4.18009,-10.44547 1.44545,-2.46696 4.61633,-6.61096 7.04639,-9.20889 2.43006,-2.59794 6.51152,-6.05701 9.06991,-7.68683 2.55838,-1.62983 7.44991,-3.89833 10.87006,-5.04111 3.91179,-1.30706 8.79369,-2.0778 13.16091,-2.0778 4.00499,0 9.51806,0.80162 13.02968,1.89456 3.34798,1.04201 8.28488,3.30479 10.9709,5.0284 2.68601,1.72361 7.20869,5.59222 10.05041,8.59691 2.84171,3.00469 6.54583,8.41011 8.23138,12.01205 2.36897,5.06236 3.18062,8.41255 3.57556,14.75853 0.281,4.51525 -0.004,10.68455 -0.6334,13.70955 -0.62938,3.025 -2.26184,7.91066 -3.62769,10.85703 -1.51952,3.27786 -5.10179,7.9383 -9.22978,12.0077 -3.71053,3.65787 -8.9228,7.7107 -11.58282,9.00628 -2.66002,1.29558 -7.16002,2.97427 -10,3.73043 -2.83998,0.75615 -8.0886,1.36855 -11.6636,1.36087 z m -88.74961,-83.38293 c -3.1762,0.21529 -7.21025,-0.16681 -9.01151,-0.85359 -1.79362,-0.68385 -4.8322,-2.49696 -6.75241,-4.02913 -1.9202,-1.53217 -4.42864,-4.62313 -5.5743,-6.86881 -1.14566,-2.24568 -2.32277,-6.40606 -2.6158,-9.24528 -0.41136,-3.9857 -0.0216,-6.35053 1.71016,-10.37611 1.72494,-4.00974 5.02662,-7.89767 14.29619,-16.83465 6.62929,-6.39142 15.23566,-13.95546 19.12526,-16.80899 3.88961,-2.85352 9.77202,-6.80731 13.07202,-8.78619 3.3,-1.97888 8.7,-4.80014 12,-6.26947 3.3,-1.46933 8.25,-3.51942 11,-4.55577 2.75,-1.03634 8.825,-2.8156 13.5,-3.9539 4.87231,-1.18635 13.83484,-2.32623 21,-2.67083 7.39714,-0.35576 16.64358,-0.11838 22.65014,0.58149 5.58258,0.65046 14.35758,2.30522 19.5,3.67724 5.14242,1.37202 14.36273,4.90112 20.48958,7.84245 6.12684,2.94132 14.00184,7.2726 17.5,9.62507 3.49815,2.35246 8.61028,6.0975 11.36028,8.32229 2.75,2.2248 9.6528,8.56303 15.33956,14.08495 5.68676,5.52192 11.18733,11.68606 12.22351,13.69808 1.03617,2.01203 2.1693,5.44276 2.51807,7.62384 0.39839,2.4914 0.0333,6.03241 -0.98211,9.52527 -0.88893,3.05781 -2.83147,7.00389 -4.31677,8.76906 -1.48529,1.76517 -4.96892,4.2657 -7.74139,5.55673 -2.96471,1.38055 -6.89426,2.34231 -9.54087,2.33514 -2.475,-0.007 -6.45054,-0.89734 -8.83454,-1.97919 -2.6184,-1.18822 -9.34907,-6.85785 -17,-14.32008 -6.966,-6.7942 -14.8056,-13.7976 -17.42132,-15.56312 -2.61573,-1.76552 -8.01573,-4.75444 -12,-6.64206 C 543.75986,541.57621 536.9,539.0764 532.5,537.9087 c -6.08657,-1.6153 -10.98974,-2.12819 -20.5,-2.14439 -9.6778,-0.0165 -14.30621,0.46287 -20.5,2.1231 -4.4,1.17941 -11.33506,3.72451 -15.41125,5.65577 -4.07618,1.93127 -10.346,5.60559 -13.93294,8.16518 -3.58693,2.55958 -10.82687,9.1119 -16.08875,14.56071 -5.26188,5.4488 -11.47938,11.03498 -13.81667,12.41372 -2.80243,1.65312 -6.20786,2.63954 -10,2.89659 z M 365,531.9522 c -1.925,0.33809 -5.32536,0.35598 -7.55637,0.0398 -2.231,-0.31622 -6.17857,-1.81865 -8.77239,-3.33873 -2.59381,-1.52007 -5.80471,-4.4264 -7.13533,-6.4585 -1.33061,-2.03209 -2.95397,-5.85213 -3.60746,-8.48897 -0.65349,-2.63684 -0.91228,-6.8071 -0.57508,-9.26724 0.3372,-2.46014 1.28162,-5.70272 2.09871,-7.20574 0.81708,-1.50303 35.58713,-37.00069 77.26676,-78.88371 61.79372,-62.09525 76.70404,-76.57904 80.78116,-78.47029 4.03721,-1.87273 6.73303,-2.32506 14,-2.34905 7.80185,-0.0258 9.79877,0.34337 15,2.77279 5.34667,2.49735 14.14269,10.93621 80.78002,77.5 57.51537,57.4519 75.35026,75.83946 77.25,79.64383 1.68211,3.36858 2.45598,6.55835 2.42609,10 -0.0241,2.77951 -0.64643,6.74207 -1.38286,8.80569 -0.73643,2.06362 -2.51294,5.29119 -3.9478,7.17239 -1.43486,1.88119 -5.07507,4.62697 -8.08935,6.10172 -4.01663,1.96516 -6.94771,2.66384 -10.97338,2.61576 -3.44017,-0.0411 -6.9849,-0.8268 -9.4855,-2.1025 -2.42939,-1.23939 -8.75159,-7.32226 -16.14735,-15.53611 -6.68509,-7.42456 -15.78239,-16.65456 -20.21622,-20.51109 -4.43382,-3.85653 -11.94895,-9.67444 -16.70028,-12.92869 -4.75132,-3.25424 -12.66056,-7.93111 -17.57607,-10.39303 -4.91552,-2.46191 -13.50762,-6.06508 -19.09358,-8.00704 -5.58595,-1.94195 -14.81095,-4.57316 -20.5,-5.84713 -9.07029,-2.03115 -12.92906,-2.31089 -31.34372,-2.27225 -17.79345,0.0373 -22.49005,0.37608 -30.75851,2.21851 -5.36718,1.19595 -13.91718,3.56129 -19,5.25631 -5.08282,1.69502 -14.19149,5.53263 -20.24149,8.52801 -6.05,2.99539 -15.25615,8.48522 -20.45812,12.19963 -5.20196,3.71442 -14.22768,11.47848 -20.05714,17.25348 -5.82947,5.775 -14.10505,14.44882 -18.39018,19.27515 -4.28513,4.82633 -9.20941,9.51477 -10.94285,10.41875 -1.73344,0.90398 -4.72671,1.92021 -6.65171,2.2583 z" id="path20"></path>
      <path id="path19" style="display:inline;fill:#99f6e4;fill-opacity:1" d="m 579.49219,86.5 c -8.2233,0 -9.64936,0.300767 -15.8086,3.333984 -4.81901,2.373198 -7.88394,4.74352 -10.63867,8.228516 -2.1284,2.69263 -4.63844,7.2119 -5.57812,10.04102 -1.2399,3.733 -1.58406,7.23472 -1.25196,12.76953 0.34484,5.74703 1.14768,8.98243 3.25782,13.12695 2.136,4.1953 7.87386,10.45769 24.18554,26.39648 11.76147,11.49259 21.26235,20.99192 21.11328,21.11133 -0.14907,0.11941 -6.55081,-1.05491 -14.22656,-2.61133 -7.67575,-1.55641 -20.05075,-3.6236 -27.5,-4.59179 -10.22163,-1.32852 -20.41351,-1.74965 -41.54492,-1.71875 -22.85055,0.0335 -30.94254,0.43708 -44,2.1914 -8.8,1.18232 -21.85,3.3092 -29,4.72657 -7.15,1.41736 -18.83617,4.17963 -25.96875,6.13867 -7.13259,1.95903 -18.83259,5.59538 -26,8.08008 -7.16742,2.48471 -20.00625,7.74249 -28.53125,11.68554 -8.525,3.94306 -20.22194,9.82658 -25.99414,13.07422 -5.7722,3.24765 -15.82214,9.46493 -22.33203,13.81641 -6.50989,4.35147 -16.41295,11.52315 -22.00586,15.9375 -5.59291,4.41435 -17.85772,15.72942 -27.25586,25.14453 C 251.01396,282.79597 239.76102,295 235.40625,300.5 c -4.35476,5.5 -10.88054,14.275 -14.50391,19.5 -3.62337,5.225 -9.58029,14.56048 -13.23632,20.74609 -3.65603,6.18561 -9.38402,16.70509 -12.72852,23.37696 -3.34451,6.67188 -8.02806,16.91138 -10.4082,22.7539 -2.38014,5.84251 -6.15376,16.24805 -8.38672,23.12305 -2.23296,6.875 -5.407,17.9 -7.05274,24.5 -1.64574,6.6 -4.10676,18.525 -5.46875,26.5 -1.36199,7.975 -3.02083,19.9 -3.68554,26.5 -0.66471,6.6 -1.20322,21.675 -1.19922,33.5 0.005,13.00364 0.65316,27.49166 1.64258,36.66211 0.89974,8.33924 2.32427,19.13924 3.16601,24 0.84173,4.86076 2.68593,14.01289 4.09766,20.33789 1.41172,6.325 4.77627,18.32545 7.47656,26.66797 2.70029,8.34252 6.72539,19.53326 8.94531,24.86719 2.21992,5.33392 6.75819,15.15847 10.08399,21.83203 3.32581,6.67355 9.39294,17.75781 13.48242,24.63281 4.08947,6.875 10.23293,16.40461 13.65234,21.17578 3.4194,4.77117 10.2668,13.48666 15.2168,19.36914 4.95,5.88249 10.35,11.2998 12,12.03711 1.65,0.73731 3.30886,1.35741 3.68555,1.37891 0.3767,0.0215 1.9517,-0.43316 3.5,-1.00977 1.54831,-0.57661 10.7857,-8.9938 20.52929,-18.70508 11.54569,-11.50739 17.92475,-18.60939 18.31641,-20.39257 0.33052,-1.50486 0.0661,-3.77517 -0.58984,-5.04493 -0.65596,-1.26976 -3.28765,-4.78359 -5.84766,-7.80859 -2.56,-3.025 -6.94722,-8.425 -9.75,-12 -2.80278,-3.575 -8.00607,-11 -11.5625,-16.5 -3.55643,-5.5 -8.75103,-14.275 -11.54297,-19.5 -2.79193,-5.225 -7.14125,-14.36381 -9.66406,-20.30859 -2.5228,-5.94478 -6.13718,-15.26575 -8.0332,-20.71289 -1.89603,-5.44715 -4.80347,-15.43334 -6.46094,-22.19141 -1.65746,-6.75808 -3.69243,-16.56211 -4.52149,-21.78711 -0.82906,-5.225 -1.99659,-13.775 -2.5957,-19 -0.59911,-5.225 -1.07123,-18.725 -1.04883,-30 0.023,-11.56142 0.68832,-25.95035 1.52539,-33 0.81633,-6.875 2.41055,-17.30194 3.54297,-23.16992 1.13243,-5.86798 3.85232,-16.80256 6.04492,-24.30078 2.19261,-7.49821 6.04916,-18.89823 8.57032,-25.33203 2.52116,-6.43381 7.40639,-17.10124 10.85546,-23.70508 3.44912,-6.60384 8.18454,-15.15384 10.52344,-19 2.3389,-3.84616 7.43576,-11.46894 11.32617,-16.94141 3.89041,-5.47246 10.96073,-14.47246 15.71289,-20 4.75217,-5.52753 13.33061,-14.51484 19.0625,-19.9707 5.73193,-5.45586 14.74494,-13.37387 20.0293,-17.5957 5.28436,-4.22188 14.25355,-10.72887 19.93164,-14.46094 5.6781,-3.73207 15.53003,-9.59033 21.89258,-13.01758 6.36256,-3.42725 14.76086,-7.62845 18.66211,-9.33594 3.90126,-1.70749 10.87626,-4.50602 15.5,-6.21875 4.62375,-1.71272 11.78125,-4.18448 15.90625,-5.49219 4.125,-1.30771 13.125,-3.75004 20,-5.42773 6.875,-1.67769 18.575,-3.98328 26,-5.12305 9.28596,-1.42543 20.67948,-2.23901 36.5,-2.60937 13.91865,-0.32584 27.93552,-0.0872 35.5,0.60547 6.875,0.62954 17.87642,2.05968 24.44727,3.17773 6.57086,1.11805 18.85879,3.79587 27.30664,5.95117 8.44784,2.1553 15.67144,4.10922 16.05273,4.3418 0.3813,0.23258 -9.11556,10.48035 -21.10352,22.77344 C 570.41048,287.85582 564.226,294.88876 562.20898,299 c -2.28604,4.65956 -2.69812,6.79886 -2.70312,14 -0.004,5.86957 0.54489,9.84574 1.77539,12.84961 0.98006,2.39253 2.87228,5.95361 4.20313,7.91211 1.33082,1.95851 5.675,6.4259 9.65429,9.92773 5.85774,5.15489 8.54893,6.76624 14.13477,8.46289 5.34967,1.62489 8.66164,1.99296 14.74804,1.64063 6.17234,-0.35731 9.19853,-1.12094 14.16407,-3.57422 5.55274,-2.7434 12.48826,-9.31047 57.47851,-54.41992 50.40835,-50.54191 51.18869,-51.38453 52.83203,-57.08594 1.12405,-3.89981 1.4376,-7.16073 0.96485,-10 C 729.07511,226.39566 727.8667,222.7 726.77539,220.5 725.51078,217.95065 702.43579,194.08902 663.14648,154.70508 607.88729,99.312618 600.82881,92.57854 595.01562,89.705078 589.16368,86.812429 587.6482,86.5 579.49219,86.5 Z M 632.75,223.77344 c 0.0122,0.001 0.0228,0.0131 0.0117,0.0332 -0.003,0.005 -0.007,0.0106 -0.01,0.0156 -0.0159,0.0249 -0.0295,0.0403 -0.0488,0.0644 -0.009,0.0112 -0.0183,0.0221 -0.0273,0.0332 -1.1e-4,0.006 8e-4,0.0103 0.002,0.0156 -0.002,0.0101 -0.005,0.0212 -0.008,0.0312 -0.002,0.006 -0.005,0.014 -0.008,0.0215 h 0.11133 c 0.0354,0.001 0.0702,-10e-4 0.10547,0.002 0.006,0 0.0135,0.001 0.0195,0.002 0.0384,0.005 0.0324,0.0441 -0.006,0.0391 -0.0395,-0.005 -0.0794,-0.003 -0.11914,-0.004 h -0.01 c 0.002,0.006 0.005,0.0223 0.0195,0.0371 v 0.002 c -10e-4,0.006 -0.003,0.0116 -0.004,0.0176 v 0.002 h 0.002 c 0.008,0.005 0.0154,0.01 0.0234,0.0156 0.0114,0.009 0.0228,0.0174 0.0332,0.0273 0.004,0.001 0.008,0.005 0.0117,0.006 -5.6e-4,-0.0106 -0.004,-0.0238 0.004,-0.0254 0.007,-0.001 0.0154,0.002 0.0234,0.0137 0.003,0.003 0.006,0.008 0.008,0.0117 0.003,0.005 0.003,0.0119 0.006,0.0176 h 0.006 c 0.005,0.003 0.0111,0.009 0.0156,0.0117 0.005,0.003 0.009,0.009 0.0137,0.0117 0.0254,0.0183 0.0131,0.0429 -0.0117,0.0391 5.6e-4,0.002 0.002,0.007 0.002,0.008 0.007,0.002 0.013,0.009 0.0195,0.01 0.002,2.9e-4 0.008,0.002 0.01,0.002 h 0.004 l 0.002,-0.002 c 6.7e-4,-0.0135 0.002,-0.0261 0.0117,-0.0254 0.007,5.8e-4 0.0127,0.008 0.0176,0.0215 0.0157,0.0431 0.0232,0.0876 0.0293,0.13281 v 0.006 c 0.007,0.004 0.0116,0.0128 0.0117,0.0273 0,0.005 2.8e-4,0.008 0,0.0137 0.002,0.005 0.01,0.01 0.0117,0.0156 0.009,-0.006 0.0182,-0.0185 0.0293,-0.0195 0.007,-6.7e-4 0.01,0.01 0.0137,0.0156 0.002,0.003 -10e-4,0.009 0.002,0.0117 0.004,0.0184 0.0107,0.0361 0.0117,0.0547 5e-5,0.006 0,0.0111 0,0.0176 0.002,0.0111 0.003,0.0181 0.006,0.0293 0.002,0.003 0.0107,0.008 0.0117,0.0117 0.002,0.01 0.009,0.0134 0.0117,0.0234 -9.5e-4,0.0357 -0.008,0.0719 -0.0117,0.10742 -1.3e-4,0.001 1.4e-4,0.005 0,0.006 6.8e-4,0.004 0.004,0.008 0.004,0.0117 9.9e-4,0.005 6.3e-4,0.009 0,0.0137 -0.002,0.0174 -0.01,0.0344 -0.0156,0.0508 -0.002,0.0125 -0.01,0.0247 -0.0117,0.0371 -3.1e-4,0.002 2.8e-4,0.004 0,0.006 -7.6e-4,0.006 -0.009,0.0118 -0.0117,0.0156 l -0.0117,0.0117 c -8.6e-4,0.009 -0.008,0.0184 -0.01,0.0254 -0.006,0.0189 -0.0173,0.0356 -0.0273,0.0527 H 633 c -8.6e-4,0.001 10e-4,0.005 -0.002,0.006 v 0.002 l -0.004,0.0117 c -10e-4,0.005 -0.008,0.0107 -0.0117,0.0117 -0.002,0.003 -0.01,0.0117 -0.0117,0.0117 -9.3e-4,-5.6e-4 -0.007,-0.009 -0.008,-0.0117 -0.002,1.3e-4 -0.01,4e-5 -0.0117,0 -9.1e-4,0.002 10e-4,0.01 -0.002,0.0117 -0.005,0.009 -0.01,0.0168 -0.0137,0.0254 l -0.0117,-0.0117 c -0.007,0.0124 -0.0149,0.0256 -0.0234,0.0371 -0.002,0.002 -0.004,0.01 -0.006,0.0117 -4e-4,7.6e-4 -0.002,0.0107 -0.002,0.0117 -0.004,0.007 -0.007,0.0142 -0.0117,0.0215 -0.002,0.004 -0.0145,0.0204 -0.0195,0.0234 -0.004,0.003 -0.0103,0.009 -0.0156,0.0117 l -0.002,0.0117 c -0.01,0.01 -0.0202,0.0134 -0.0273,0.0117 -0.002,0.003 -0.01,0.0107 -0.0117,0.0117 0.005,0.009 10e-4,0.01 -0.01,0.0137 0,0.001 -0.004,1e-4 -0.006,0 h -0.002 l -0.0117,0.0117 h -0.002 c -0.008,0.002 -0.0156,0.009 -0.0234,0.0117 h -0.002 c -0.003,0.002 -0.008,0.01 -0.0117,0.0117 -0.01,0.005 -0.0192,0.0106 -0.0293,0.0156 -0.0428,0.0202 -0.0893,0.037 -0.13672,0.041 -0.007,3.2e-4 -0.0145,-1e-4 -0.0215,0 -0.0301,10e-4 -0.0602,-0.008 -0.0898,-0.0117 -0.006,-0.001 -0.0131,-0.0107 -0.0195,-0.0117 -0.008,-3e-5 -0.0157,0 -0.0234,0 -0.002,0 -0.004,0.002 -0.004,0 v -0.15821 c -0.0355,0.0387 -0.0716,0.0766 -0.10938,0.11328 -0.0218,0.0212 -0.0267,-0.002 -0.0215,-0.0215 -0.01,0.009 -0.0196,0.0181 -0.0293,0.0273 -0.0278,0.0266 -0.0554,-0.003 -0.0273,-0.0293 0.0381,-0.0359 0.0772,-0.0715 0.11523,-0.10743 -0.0249,-0.003 -0.0498,-0.006 -0.0742,-0.0117 -0.0235,-0.005 -0.0484,-0.0125 -0.0703,-0.0215 -0.0191,-0.009 -0.0321,-0.0223 -0.0469,-0.0371 -0.006,-0.007 -0.0137,-0.0159 -0.0195,-0.0254 h -0.004 c -0.006,4e-5 -0.008,-0.008 -0.0137,-0.0117 -10e-4,-0.002 -0.01,-0.007 -0.0117,-0.01 h -0.002 c -0.004,0.001 -0.01,7.6e-4 -0.0137,0 -0.008,-0.002 -0.0119,-0.0115 -0.0156,-0.0195 -0.002,-0.005 -0.0107,-0.0126 -0.0117,-0.0176 -0.001,-0.004 -0.009,-0.009 -0.0117,-0.0117 -0.005,0.006 -0.013,0.0117 -0.0293,0.0117 -0.007,-2.1e-4 -0.009,-0.0106 -0.0117,-0.0156 -6.6e-4,-0.0113 -7.1e-4,-0.0172 0,-0.0293 9e-5,-0.001 -10e-5,-0.005 0,-0.006 -0.005,-1.3e-4 -0.009,4.8e-4 -0.0137,0 -9.9e-4,-1.4e-4 -0.0107,1.9e-4 -0.0117,0 -0.002,-3e-4 -0.01,0.001 -0.0117,-0.002 -0.002,0 4e-5,-0.01 0,-0.0117 0,-0.0155 -0.005,-0.0295 -0.0117,-0.0449 -7.3e-4,-0.005 -0.0107,-0.009 -0.0117,-0.0137 -9.9e-4,-6e-4 -0.0107,0.001 -0.0117,-0.002 -0.002,-6.8e-4 -0.01,-0.008 -0.0117,-0.01 -0.006,-0.006 -0.009,-0.0178 -0.0117,-0.0332 -0.002,-0.0125 0.006,-0.0284 0.008,-0.041 0.0154,-0.11966 0.0488,-0.23463 0.084,-0.34961 0.0162,-0.0542 0.0351,-0.1084 0.0527,-0.16211 0.012,-0.0368 0.0491,-0.0212 0.0371,0.0156 -0.0175,0.0535 -0.0347,0.10626 -0.0508,0.16016 -0.027,0.0881 -0.0562,0.1771 -0.0742,0.26757 0.027,-0.072 0.0518,-0.14533 0.0801,-0.21679 0.006,-0.0148 0.0101,-0.0232 0.0156,-0.0293 v -0.006 l 0.0117,-0.002 0.004,-0.002 c 0.007,-0.003 0.0197,-0.0125 0.0371,-0.0117 0.004,2e-4 7.6e-4,0.008 0,0.0117 -9.9e-4,0.006 -0.01,0.0116 -0.0117,0.0176 -0.002,0.006 -0.01,0.008 -0.0117,0.0117 -0.003,0.01 -0.0107,0.0121 -0.0117,0.0137 v 0.002 c -9.9e-4,0.005 -0.005,0.0167 -0.0117,0.0371 -0.0104,0.0331 -0.0198,0.0643 -0.0293,0.0976 0.0136,-0.0223 0.029,-0.0443 0.043,-0.0664 0.0171,-0.0276 0.0373,-0.0518 0.0586,-0.0762 0.0126,-0.0149 0.0296,-0.0288 0.0449,-0.041 0.002,-10e-4 0.008,-0.008 0.01,-0.01 8.6e-4,-0.001 0.0107,-0.0107 0.0117,-0.0117 v -0.0117 h 0.01 c 0.002,4e-4 0.01,0.01 0.0117,0.0117 0.0175,-0.0199 0.0384,-0.0336 0.0547,-0.0547 0.0227,-0.0275 0.0464,-0.0555 0.0703,-0.082 l 0.0117,-0.0117 0.0117,-0.0117 c -0.009,-0.001 -0.0117,-0.0127 -0.0117,-0.0391 10e-4,-0.007 0.0109,-0.0106 0.0156,-0.0156 0.007,-0.006 0.0145,-0.0116 0.0215,-0.0176 0.0205,-0.0173 0.0389,-0.0347 0.0606,-0.0508 0.004,-0.003 0.018,-0.0127 0.0273,-0.0176 l 0.0117,-0.0117 0.01,-0.0117 c 10e-4,-10e-4 0.006,-0.0125 0.008,-0.0117 8.2e-4,-0.001 0.0107,-0.0107 0.0117,-0.0117 h 0.002 c 0.001,-0.001 0.0107,0.001 0.0117,-0.002 7.6e-4,-0.003 0.002,-0.007 0.004,-0.0117 0,-0.002 0.009,0.001 0.0117,-0.002 l -0.002,0.002 -0.002,0.002 -0.002,0.002 v 0.002 0.002 0.002 c 0.008,9.1e-4 0.0143,0.008 0.0176,0.0234 2.4e-4,0.001 -3.4e-4,0.003 0,0.004 0.003,-0.007 0.007,-0.0143 0.01,-0.0215 0.005,-0.009 0.0107,-0.0152 0.0176,-0.0176 0.002,-0.003 2e-4,-0.0105 0.004,-0.0117 0.003,-8.4e-4 0.005,0.008 0.008,0.01 0.0216,-0.0256 0.0435,-0.05 0.0644,-0.0762 0.0173,-0.0215 0.0305,-0.0401 0.0449,-0.0625 0.003,-0.004 0.006,-0.008 0.008,-0.0117 0.007,-0.0115 0.0158,-0.0194 0.0234,-0.0195 z m -0.19141,0.1582 h 0.002 v 0.002 0.002 0.002 0.002 0.002 h -0.002 z m 0.10547,0.0957 c -0.002,0.002 0.003,0.003 0,0.004 0.007,-2.4e-4 0.0144,-8.5e-4 0.0215,-0.002 9e-5,-0.001 0.002,-8.7e-4 0.002,-0.002 z m 0.0547,0 c 0.002,0.002 0.004,0.005 0.006,0.008 0.006,0.01 0.012,0.0207 0.0176,0.0312 h 0.002 c 10e-4,-0.006 0.003,-0.0123 0.004,-0.0156 10e-4,-0.004 0.002,-0.006 0.004,-0.01 h 0.002 c 0.004,-0.008 0.006,-0.0117 0.008,-0.0137 z m 0.0566,0.0918 c -8e-5,0.001 8e-5,0.003 0,0.004 h 0.002 l 0.002,-0.002 c -10e-4,-0.001 -0.003,-9e-4 -0.004,-0.002 z m -0.0566,0.084 -0.002,0.002 c 10e-4,5e-4 0.003,-0.001 0.004,0.002 -0.001,-0.001 10e-4,-0.003 -0.002,-0.004 z m -0.0801,0.38672 c -7.1e-4,0.003 5.5e-4,0.005 -0.002,0.008 l 0.002,-0.002 c -1.9e-4,-0.002 1.9e-4,-0.004 0,-0.006 z m -0.375,0.14454 c -0.004,0.007 -0.01,0.0129 -0.0137,0.0195 l 0.002,0.002 c 0.003,-0.008 0.008,-0.0145 0.0117,-0.0215 z m 0.72071,0.23828 c 0.002,-2.9e-4 0.005,0 0.008,0 h 0.0234 0.0547 c 0.0387,0 0.0387,0.0391 0,0.0391 h -0.0547 -0.0234 c -0.0363,0 -0.0282,-0.0348 -0.008,-0.0391 z m 138.29101,43.68359 c -1.02678,-0.0766 -2.06484,-0.0502 -2.86523,0.0977 -2.07447,0.38325 -8.13306,5.70196 -21.08985,18.51367 -9.99832,9.88637 -18.7118,19.26116 -19.36328,20.83398 -0.65149,1.57282 -0.89586,4.0041 -0.54492,5.40235 0.35094,1.39826 3.62149,5.7946 7.26953,9.76953 3.64804,3.97492 10.69052,12.59873 15.64844,19.16406 4.95792,6.56534 12.15806,16.88828 16,22.94141 3.84194,6.05313 10.24673,17.78291 14.23437,26.06445 3.98763,8.28153 9.13661,20.23164 11.44141,26.55664 2.3048,6.325 5.92676,18.29867 8.04883,26.60742 2.12206,8.30876 4.8652,21.58376 6.0957,29.5 1.90821,12.27627 2.24295,18.51074 2.28125,42.39258 0.0288,17.93359 -0.42787,31.41539 -1.27148,37.5 -0.72442,5.225 -2.37901,14.71528 -3.67774,21.08984 -1.29874,6.37457 -3.51901,15.70713 -4.93359,20.73828 -1.41457,5.03117 -4.30576,14.00576 -6.42383,19.94336 -2.11806,5.9376 -5.81928,15.05506 -8.22656,20.26172 -2.40727,5.20667 -6.80448,13.9668 -9.76953,19.4668 -2.96504,5.5 -8.66741,14.95 -12.67188,21 -4.00448,6.05 -10.69835,15.275 -14.87695,20.5 -4.17859,5.225 -12.65727,14.62359 -18.83985,20.88672 -6.18258,6.26313 -16.19023,15.45207 -22.24023,20.41992 -6.05,4.96785 -16.625,12.74807 -23.5,17.28906 -6.875,4.54099 -18.15554,11.20861 -25.06836,14.81641 -6.91282,3.6078 -17.3761,8.5734 -23.25195,11.03516 -5.87585,2.46176 -16.8703,6.46777 -24.43164,8.90234 -7.56133,2.43457 -20.49805,5.82525 -28.74805,7.53516 -8.25,1.7099 -20.61212,3.7868 -27.4707,4.61328 -7.54161,0.90879 -20.97932,1.49818 -34,1.49218 -11.84142,-0.005 -27.1543,-0.6415 -34.0293,-1.41406 -6.875,-0.77255 -18.18491,-2.5606 -25.13281,-3.97265 -6.9479,-1.41205 -17.96938,-4.18495 -24.49219,-6.16211 -6.52282,-1.97715 -15.68789,-5.17744 -20.36719,-7.11133 -4.67929,-1.93389 -8.69802,-3.70333 -8.93164,-3.93164 -0.23362,-0.22831 12.40206,-13.3482 28.08008,-29.15625 23.98577,-24.1847 28.9547,-29.69353 31.33984,-34.74219 2.08143,-4.40583 2.95597,-8.01626 3.28907,-13.58594 0.30894,-5.16556 -0.0517,-9.31993 -1.12891,-13.02539 -0.86995,-2.99254 -3.29271,-7.89024 -5.38477,-10.88476 -2.09207,-2.99453 -6.04643,-7.15504 -8.7871,-9.2461 -2.85267,-2.17634 -7.90923,-4.7024 -11.82618,-5.90625 -5.21002,-1.60128 -8.557,-1.99364 -14.02734,-1.64258 -5.11813,0.32847 -8.7596,1.24373 -12.6582,3.17969 -4.4457,2.20763 -15.74202,12.97546 -60.19336,57.38086 -45.56101,45.51393 -55.07714,55.49623 -56.85742,59.63477 -1.57977,3.67229 -2.02595,6.33768 -1.70508,10.20703 0.23887,2.88048 1.52617,7.27379 2.85937,9.76367 1.5921,2.97341 23.70175,25.94225 64.42383,66.92383 34.1,34.31731 63.85485,63.55792 66.12305,64.98047 2.26819,1.42256 6.31819,3.28629 9,4.14258 3.14692,1.00453 7.54329,1.44666 12.39648,1.24609 5.51308,-0.22783 9.05388,-1.01337 13.26953,-2.94336 3.28835,-1.50545 7.84988,-4.78683 10.6543,-7.66602 3.03495,-3.11587 5.77279,-7.23115 7.18359,-10.79687 1.70392,-4.30659 2.27935,-7.78195 2.27735,-13.76172 -0.002,-6.09134 -0.52641,-9.16053 -2.19922,-12.86719 -1.30085,-2.88246 -5.56388,-8.34752 -10.45117,-13.39648 -6.31862,-6.52765 -7.66772,-8.37677 -5.75391,-7.88477 1.375,0.35348 7.9,1.41693 14.5,2.36133 9.06537,1.29716 18.96975,1.72098 40.5,1.73438 24.08337,0.015 31.05699,-0.33099 45,-2.23438 9.075,-1.23884 23.475,-3.86914 32,-5.8457 8.525,-1.97657 21.61226,-5.56094 29.08203,-7.96485 7.46977,-2.40391 19.14083,-6.65734 25.9375,-9.45117 6.79668,-2.79382 17.78636,-7.79606 24.41992,-11.11719 6.63356,-3.32114 16.33555,-8.54155 21.56055,-11.5996 5.225,-3.05836 14,-8.57802 19.5,-12.26563 5.5,-3.6876 14.05,-9.85372 19,-13.70313 4.95,-3.8491 14.03112,-11.33577 20.17969,-16.63671 6.14856,-5.30095 16.81205,-15.59778 23.69726,-22.88282 6.8852,-7.28504 15.52611,-17.07109 19.20117,-21.74609 3.6754,-4.675 9.71206,-12.775 13.41602,-18 3.70395,-5.225 9.80178,-14.45 13.54883,-20.5 3.74705,-6.05 10.12922,-17.87198 14.18359,-26.27148 4.05438,-8.3995 9.62769,-21.2245 12.38477,-28.5 2.75708,-7.2755 6.96734,-19.97852 9.35742,-28.22852 2.39008,-8.25 5.49843,-20.625 6.90625,-27.5 1.40782,-6.875 3.34804,-18.35 4.31055,-25.5 1.36518,-10.1412 1.75207,-20.25695 1.76367,-46 0.0119,-26.35887 -0.33935,-35.41495 -1.7461,-45 -0.96861,-6.6 -2.68434,-16.725 -3.8125,-22.5 -1.12806,-5.775 -3.12603,-14.79934 -4.43945,-20.05469 -1.31343,-5.25535 -4.45455,-15.97392 -6.98047,-23.81836 -2.52591,-7.84444 -7.07622,-20.1951 -10.11132,-27.44531 -3.03555,-7.2503 -8.47243,-18.80664 -12.08204,-25.68164 -3.60961,-6.875 -9.92891,-17.9 -14.04296,-24.5 -4.11411,-6.6 -10.79382,-16.56396 -14.84376,-22.14258 -4.04993,-5.57862 -10.03388,-13.34032 -13.29882,-17.24804 -3.26493,-3.90779 -8.71028,-10.22547 -12.09961,-14.03907 -3.38933,-3.81361 -7.40106,-7.36641 -8.91602,-7.89453 -0.75748,-0.26406 -1.77399,-0.44295 -2.80078,-0.51953 z"></path>
      <path id="path16" style="display:inline;fill:#facc15;fill-opacity:1" d="m 579.49219,86.5 c -8.2233,0 -9.64936,0.300767 -15.8086,3.333984 -4.81901,2.373198 -7.88394,4.74352 -10.63867,8.228516 -2.1284,2.69263 -4.63844,7.2119 -5.57812,10.04102 -1.2399,3.733 -1.58406,7.23472 -1.25196,12.76953 0.34441,5.73982 1.1467,8.97677 3.24219,13.08203 2.10341,4.12077 8.01598,10.57752 24.17578,26.4043 11.7651,11.52261 21.27284,21.06175 21.12891,21.19726 -0.14393,0.1355 -4.08672,-0.59712 -8.76172,-1.62695 -4.675,-1.02983 -14.35,-2.7654 -21.5,-3.85742 -7.15,-1.09202 -19.975,-2.51678 -28.5,-3.16602 -9.23619,-0.7034 -22.97616,-0.93428 -34,-0.57227 -10.175,0.33413 -24.35,1.29961 -31.5,2.14649 -7.15,0.84688 -18.03794,2.45084 -24.19531,3.56445 -6.15736,1.1136 -17.47432,3.56683 -25.14844,5.45117 -7.67412,1.88433 -19.06118,5.07185 -25.30469,7.08399 -6.24352,2.01214 -15.71055,5.38955 -21.03906,7.50586 -5.32851,2.11631 -16.57851,7.20338 -25,11.30273 -8.42149,4.09935 -20.2625,10.45128 -26.3125,14.11719 -6.05,3.66592 -15.5,9.85259 -21,13.74609 -5.5,3.8935 -14.96018,11.23285 -21.02148,16.31055 -6.0613,5.07769 -17.0863,15.47023 -24.5,23.09375 -7.4137,7.62352 -17.36058,18.70768 -22.10547,24.63281 -4.74488,5.92513 -11.99523,15.82185 -16.11133,21.99219 -4.1161,6.17033 -9.81943,15.20936 -12.67383,20.08594 C 203.23349,348.24377 198.2443,357.52803 195,364 c -3.2443,6.47198 -7.71563,16.13092 -9.93555,21.46484 -2.21992,5.33393 -6.26034,16.57156 -8.98047,24.97266 -2.72013,8.40109 -6.56203,22.51158 -8.5371,31.35547 -1.97509,8.84388 -4.5004,22.52004 -5.61133,30.39258 -1.11092,7.87254 -2.42614,22.1148 -2.92188,31.64843 -0.54307,10.44327 -0.53155,24.08553 0.0234,34.31836 0.50819,9.34151 1.40939,20.88576 2.00195,25.6543 0.59256,4.76854 1.95882,13.85031 3.03711,20.18164 1.07828,6.33133 3.04773,16.01172 4.37695,21.51172 1.32922,5.5 4.48786,16.41172 7.01954,24.24805 2.53168,7.83634 6.621,19.06503 9.08789,24.95312 2.46689,5.88808 8.00752,17.49504 12.31054,25.79297 4.30302,8.29793 10.70495,19.71635 14.22657,25.375 3.52163,5.65865 9.85416,14.86501 14.07422,20.45898 4.22004,5.59403 10.65631,13.54688 14.30273,17.67188 3.64643,4.125 7.84461,8.04238 9.32812,8.70508 1.48351,0.66269 3.04835,1.2252 3.47852,1.25 0.43016,0.0248 2.23016,-0.58461 4,-1.35352 1.76983,-0.76892 10.93765,-9.20642 20.37109,-18.75 9.43343,-9.54359 17.45028,-18.36406 17.81641,-19.60156 0.36611,-1.2375 0.38018,-3.15531 0.0273,-4.26172 -0.35116,-1.10641 -4.47087,-6.61891 -9.15625,-12.25 C 280.65783,692.10719 273.07989,681.875 268.50781,675 c -4.57209,-6.875 -10.35993,-16.325 -12.86133,-21 -2.5014,-4.675 -6.86962,-13.9 -9.70703,-20.5 -2.8374,-6.6 -7.10272,-17.85 -9.47851,-25 -2.37579,-7.15 -5.45315,-18.175 -6.83789,-24.5 -1.38473,-6.325 -3.20621,-16.225 -4.04883,-22 -0.84261,-5.775 -1.96996,-17.41484 -2.50391,-25.86719 -0.62632,-9.91516 -0.62345,-21.4466 -0.004,-32.5 0.53173,-9.42265 1.87066,-22.75781 2.97461,-29.63281 1.10395,-6.875 3.08538,-17 4.40429,-22.5 1.31891,-5.5 3.83004,-14.5 5.57813,-20 1.7481,-5.5 5.39808,-15.43478 8.11328,-22.07617 2.71517,-6.64139 8.10128,-17.89139 11.96875,-25 3.86747,-7.10861 10.34037,-17.87383 14.38476,-23.92383 4.04439,-6.05 10.3912,-14.825 14.10352,-19.5 3.71232,-4.675 13.55419,-15.25 21.86914,-23.5 8.31495,-8.25 19.93034,-18.74699 25.8125,-23.32617 5.88215,-4.57918 16.26247,-11.81323 23.06836,-16.07617 6.80589,-4.26294 18.40069,-10.72054 25.76563,-14.34961 7.36491,-3.62906 18.83501,-8.6153 25.49023,-11.08203 6.65521,-2.46674 17.05678,-5.86192 23.11328,-7.54297 6.05651,-1.68105 16.58517,-4.17455 23.39844,-5.54297 6.81327,-1.36842 18.91367,-3.23461 26.88867,-4.14649 11.31371,-1.29362 19.99361,-1.54417 39.5,-1.13867 17.86954,0.37147 28.73627,1.09783 38.09961,2.54492 7.20476,1.11349 20.47976,3.81807 29.5,6.01172 9.02023,2.19365 17.56461,4.4348 18.98633,4.98047 2.52192,0.96793 2.05113,1.53613 -19.28711,23.30469 -16.48474,16.81718 -22.54082,23.67374 -24.58594,27.83789 -2.36576,4.81702 -2.70308,6.6785 -2.64258,14.52539 0.0532,6.9035 0.55336,10.04825 2.15039,13.5 1.14511,2.475 3.19132,5.96724 4.54688,7.76172 1.35555,1.79448 5.52965,5.96872 9.27539,9.27539 5.44292,4.80491 8.19665,6.43405 13.71875,8.11133 5.36021,1.62811 8.67042,1.99703 14.75976,1.64453 6.17234,-0.35731 9.19853,-1.12094 14.16407,-3.57422 5.55274,-2.7434 12.48826,-9.31047 57.47851,-54.41992 50.40835,-50.54191 51.18869,-51.38453 52.83203,-57.08594 1.12405,-3.89981 1.4376,-7.16073 0.96485,-10 C 729.07931,226.39566 727.8667,222.7 726.77539,220.5 725.51078,217.95065 702.43579,194.08902 663.14648,154.70508 607.88729,99.312708 600.82881,92.57854 595.01562,89.705078 589.16368,86.812429 587.6482,86.5 579.49219,86.5 Z M 632.5,224 c 0.275,0 0.5,0.225 0.5,0.5 0,0.275 -0.225,0.5 -0.5,0.5 -0.275,0 -0.5,-0.225 -0.5,-0.5 0,-0.275 0.225,-0.5 0.5,-0.5 z M 430,663.50391 c -8.47562,0.004 -10.09306,0.31247 -15,2.84765 -4.34824,2.24653 -16.87504,14.18088 -59.82031,56.99414 -31.63894,31.54167 -55.21251,55.82451 -56.45508,58.1543 -1.52862,2.86613 -2.14473,5.84915 -2.17773,10.52148 -0.036,5.09507 0.49972,7.54882 2.45312,11.22266 1.71899,3.23297 21.91386,24.20927 64.64062,67.14648 34.17695,34.34493 63.9318,63.57766 66.12305,64.96094 2.19126,1.38328 6.17757,3.18818 8.85938,4.01172 2.6818,0.82355 7.39553,1.52811 10.47265,1.56641 3.07713,0.0383 8.141,-0.76993 11.25391,-1.79688 3.11291,-1.02696 7.51208,-3.15088 9.77734,-4.7207 2.26526,-1.56983 5.65068,-4.86042 7.52149,-7.31055 1.87082,-2.45012 4.3494,-7.57489 5.50781,-11.38867 1.5819,-5.20818 1.9559,-8.36024 1.50586,-12.66601 -0.32955,-3.15301 -1.53278,-7.91031 -2.67383,-10.57227 -1.68507,-3.9311 -8.49746,-11.16411 -36.28125,-38.51758 -18.8139,-18.52251 -38.64442,-38.47119 -44.06836,-44.33008 -9.86173,-10.65254 -9.86173,-10.65272 -5.5,-16.18554 2.39894,-3.04306 5.10824,-6.69207 6.02149,-8.10938 0.91326,-1.41732 14.23101,-15.23499 29.59375,-30.70508 15.36274,-15.47009 29.28545,-30.15195 30.9414,-32.62695 1.65596,-2.475 3.80701,-6.9177 4.7793,-9.87305 1.29846,-3.94672 1.64746,-7.39827 1.3125,-13 -0.33043,-5.52591 -1.20148,-9.19152 -3.16016,-13.30468 -1.48682,-3.12224 -4.82246,-7.93066 -7.41406,-10.6875 -3.05294,-3.24759 -7.17755,-6.17916 -11.71289,-8.32422 -6.39779,-3.02593 -7.81728,-3.31064 -16.5,-3.30664 z m -14.72656,122.69726 c 0.004,0.01 0.005,0.0121 0.01,0.0234 0.002,0.005 0.001,-0.0106 -0.004,-0.0156 -0.002,-0.003 -0.004,-0.005 -0.006,-0.008 z m 1.49218,0.72656 c 10e-4,0.004 0.003,0.008 0.004,0.0117 0.009,0.002 0.0182,0.003 0.0274,0.006 -0.007,-0.004 -0.0247,-0.0132 -0.0313,-0.0176 z m 0.30274,0.16797 0.01,0.01 c 0.004,8.4e-4 0.008,-10e-4 0.0117,0.002 -0.003,-0.003 -0.0179,-0.009 -0.0215,-0.0117 z m 1.18555,0.6543 c -0.006,0.016 -0.0128,0.0316 -0.0215,0.0469 0.0428,0.004 0.23488,0.091 0.26758,0.0898 0.0251,-8.8e-4 -0.25897,-0.13043 -0.24609,-0.13672 z m 3.54687,1.05273 c 0.001,0.004 -0.003,0.006 -0.002,0.01 0.0115,-7.5e-4 0.0233,-0.002 0.0351,-0.002 -0.008,-0.001 -0.0256,-0.007 -0.0332,-0.008 z m -21.20508,1.3711 c -0.007,0.008 -0.0149,0.0144 -0.0195,0.0234 0.004,-1.3e-4 0.007,-0.008 0.0117,-0.006 0.002,9.6e-4 0.004,0.003 0.006,0.004 -0.003,-0.003 0.002,-0.0152 0.002,-0.0215 z m 23.8086,0.11719 c -0.0866,10e-6 -0.17328,-10e-4 -0.25977,0.004 0.0249,0.009 0.0169,0.0122 0.043,0.0215 0.14824,0.0524 0.21363,0.0446 0.36328,0.0957 0.0232,-0.0345 0.046,-0.0681 0.0703,-0.10156 -0.0726,-0.002 -0.14399,-0.0198 -0.21679,-0.0195 z m -24.125,0.0625 c -0.01,0.007 -0.0178,0.0149 -0.0273,0.0215 0.003,-1.7e-4 0.005,-6e-5 0.008,0 0.007,-0.007 0.0127,-0.0146 0.0195,-0.0215 z m 27.03711,0.60351 c 0.01,0.003 0.0194,0.007 0.0293,0.01 0.015,0.005 0.0299,0.009 0.0449,0.0137 8.8e-4,-0.002 0.003,-0.002 0.004,-0.004 -0.0261,-0.006 -0.0519,-0.014 -0.0781,-0.0195 z m -27.17383,0.20508 c -0.002,10e-4 -0.004,0.003 -0.006,0.004 -0.0286,0.0498 -0.0561,0.10022 -0.084,0.15039 0.0252,-0.0453 0.0516,-0.09 0.0781,-0.13477 0.004,-0.007 0.008,-0.013 0.0117,-0.0195 z m -0.0899,0.1543 c -0.0135,0.0242 -0.0276,0.0479 -0.041,0.0723 l -0.006,0.01 0.006,-0.006 c 0.0139,-0.0253 0.027,-0.051 0.041,-0.0762 z m -0.44921,-0.11524 c -0.002,0.003 -0.004,0.007 -0.006,0.01 0.001,-5.9e-4 0.003,-0.002 0.004,-0.002 6.5e-4,-0.003 5.2e-4,-0.005 0.002,-0.008 z m 29.14062,0.11719 c -5e-5,0.0117 -0.002,0.0236 -0.004,0.0352 0.0155,0.003 0.0313,0.006 0.0469,0.01 -0.0145,-0.0167 -0.0289,-0.0307 -0.043,-0.0449 z m -29.32617,0.39062 c -10e-4,0.0132 -0.004,0.0269 -0.006,0.041 0.005,-0.0118 0.0104,-0.0234 0.0156,-0.0352 -0.004,-10e-4 -0.007,-0.004 -0.01,-0.006 z m 32.99219,1.14844 c -0.004,0.0136 -0.009,0.0263 -0.0137,0.0391 0.026,0.0462 0.0466,0.10352 0.10352,0.10352 0.009,0 0.007,-0.0152 0.0156,-0.0156 -0.0205,-0.0556 -0.0499,-0.10708 -0.10546,-0.12696 z m 2.67773,0.55469 c -0.0129,0.0443 -0.0879,0.0395 -0.0879,0.0879 0,0.0795 0.11116,0.0776 0.14453,0.14453 0.007,-0.0186 0.0132,-0.0376 0.0195,-0.0566 -0.0346,-0.0503 -0.0606,-0.10825 -0.0762,-0.17578 z m -39.60156,2.82031 c -1.1e-4,0.003 -0.002,0.005 -0.002,0.008 0.004,0.002 0.006,0.003 0.01,0.006 l 0.002,0.002 c -8e-5,-0.002 9.8e-4,-0.006 0,-0.008 -0.002,-0.004 -0.006,-0.006 -0.01,-0.008 z m -0.47852,0.25977 c -1.1e-4,0.004 -0.008,0.004 -0.008,0.008 0,0.003 0.006,0.003 0.006,0.006 1.8e-4,-0.004 0.002,-0.009 0.002,-0.0137 z m 0.73633,0.20703 c 2e-4,0.008 -3.1e-4,0.0159 0,0.0234 -8e-5,-0.004 -0.001,-0.008 0.002,-0.0117 -2.1e-4,-0.004 -0.002,-0.008 -0.002,-0.0117 z"></path>
      <path style="display:inline;fill:#facc15;fill-opacity:1" d="m 252.28212,753.9549 c -0.43017,-0.0248 -1.9959,-0.58731 -3.47941,-1.25 -1.48351,-0.6627 -5.68073,-4.5799 -9.32716,-8.7049 -3.64642,-4.125 -10.08264,-12.07691 -14.30271,-17.67091 -4.22006,-5.594 -10.55417,-14.80071 -14.0758,-20.45936 -3.52162,-5.65865 -9.92361,-17.07766 -14.22663,-25.37559 -4.30302,-8.29793 -9.84204,-19.90468 -12.30893,-25.79276 -2.46689,-5.88809 -6.55663,-17.11716 -9.08831,-24.9535 C 172.94149,621.91155 169.78256,611 168.45334,605.5 c -1.32923,-5.5 -3.29902,-15.18018 -4.3773,-21.51151 -1.07829,-6.33133 -2.44534,-15.41304 -3.0379,-20.18158 -0.59256,-4.76854 -1.49317,-16.31313 -2.00136,-25.65464 -0.55667,-10.23283 -0.56567,-23.87514 -0.0226,-34.31841 0.49574,-9.53363 1.81028,-23.77503 2.9212,-31.64757 1.11093,-7.87254 3.63584,-21.54962 5.61092,-30.3935 1.97508,-8.84389 5.81661,-22.95342 8.53674,-31.35451 2.72013,-8.4011 6.76199,-19.63884 8.98191,-24.97277 2.21992,-5.33392 6.69065,-14.99329 9.93495,-21.46527 3.2443,-6.47197 8.23414,-15.75715 11.08854,-20.63373 2.8544,-4.87658 8.55753,-13.91497 12.67363,-20.0853 4.1161,-6.17034 11.366,-16.06663 16.11088,-21.99176 4.74489,-5.92513 14.69282,-17.01039 22.10652,-24.63391 7.4137,-7.62352 18.4387,-18.01542 24.5,-23.09311 6.0613,-5.0777 15.52055,-12.41777 21.02055,-16.31127 5.5,-3.8935 14.95,-10.07847 21,-13.74439 6.05,-3.66591 17.89031,-10.01931 26.3118,-14.11866 8.42149,-4.09935 19.67149,-9.18489 25,-11.3012 5.32851,-2.11631 14.79653,-5.49414 21.04005,-7.50628 6.24351,-2.01214 17.63067,-5.20016 25.30479,-7.08449 7.67412,-1.88434 18.99079,-4.3372 25.14815,-5.4508 6.15737,-1.11361 17.04521,-2.71764 24.19521,-3.56452 7.15,-0.84688 21.325,-1.81316 31.5,-2.14729 11.02384,-0.36201 24.76381,-0.13048 34,0.57292 8.525,0.64924 21.35,2.07391 28.5,3.16593 7.15,1.09202 16.825,2.82807 21.5,3.8579 4.675,1.02983 8.61776,1.76155 8.76169,1.62605 0.14393,-0.13551 -9.3643,-9.67398 -21.1294,-21.1966 -16.1598,-15.82675 -22.072,-22.2842 -24.17541,-26.40497 -2.09549,-4.10526 -2.89754,-7.34157 -3.24195,-13.08139 -0.3321,-5.53481 0.011,-9.03748 1.2509,-12.77048 0.93968,-2.82912 3.44992,-7.3469 5.57832,-10.039529 2.75473,-3.484996 5.82049,-5.856323 10.6395,-8.229521 6.15924,-3.033217 7.5847,-3.33384 15.808,-3.33384 8.15601,0 9.67137,0.312922 15.52333,3.205571 5.81315,2.873462 12.87178,9.607713 68.13097,64.999999 39.28931,39.38394 62.36556,63.24508 63.63017,65.79443 1.09131,2.2 2.29989,5.89592 2.68572,8.21315 0.47275,2.83927 0.1576,6.10019 -0.96645,10 -1.64334,5.70141 -2.42333,6.54422 -52.83168,57.08613 -44.99025,45.10945 -51.92564,51.67571 -57.47838,54.41911 -4.96554,2.45328 -7.99171,3.21693 -14.16405,3.57424 -6.08934,0.3525 -9.39866,-0.0162 -14.75887,-1.64431 -5.5221,-1.67728 -8.27701,-3.30591 -13.71993,-8.11082 -3.74574,-3.30667 -7.91952,-7.48033 -9.27507,-9.27481 -1.35556,-1.79448 -3.40155,-5.28769 -4.54666,-7.76269 -1.59703,-3.45175 -2.09818,-6.5965 -2.15139,-13.5 -0.0605,-7.84689 0.27829,-9.70787 2.64405,-14.52489 2.04512,-4.16415 8.10022,-11.02033 24.58496,-27.83751 21.33824,-21.76856 21.8085,-22.3368 19.28658,-23.30473 -1.42172,-0.54567 -9.96514,-2.78693 -18.98537,-4.98058 -9.02024,-2.19365 -22.29524,-4.89949 -29.5,-6.01298 -9.36334,-1.44709 -20.23004,-2.17275 -38.09958,-2.54422 -19.50639,-0.4055 -28.18629,-0.15537 -39.5,1.13825 -7.975,0.91188 -20.0745,2.77757 -26.88777,4.14599 -6.81327,1.36842 -17.3431,3.86344 -23.39961,5.54449 -6.0565,1.68105 -16.45701,5.0747 -23.11222,7.54144 -6.65522,2.46673 -18.12624,7.45421 -25.49116,11.08327 -7.36493,3.62907 -18.95923,10.08617 -25.76512,14.34911 -6.80589,4.26294 -17.18702,11.4974 -23.06917,16.07658 -5.88216,4.57918 -17.49796,15.07578 -25.81291,23.32578 -8.31495,8.25 -18.15543,18.825 -21.86775,23.5 -3.71232,4.675 -10.05871,13.45 -14.1031,19.5 -4.04439,6.05 -10.51773,16.81613 -14.3852,23.92474 -3.86747,7.10861 -9.25327,18.35861 -11.96844,25 -2.7152,6.64139 -6.36697,16.57526 -8.11507,22.07526 -1.74809,5.5 -4.25747,14.5 -5.57638,20 -1.31891,5.5 -3.30126,15.625 -4.40521,22.5 -1.10395,6.875 -2.44223,20.20945 -2.97396,29.6321 -0.62375,11.0534 -0.62232,22.58484 0.004,32.5 0.53395,8.45235 1.66023,20.0929 2.50284,25.8679 0.84262,5.775 2.665,15.675 4.04973,22 1.38474,6.325 4.46154,17.35 6.83733,24.5 2.37579,7.15 6.64113,18.4 9.47853,25 2.83741,6.6 7.20551,15.825 9.70691,20.5 2.5014,4.675 8.2888,14.125 12.86089,21 4.57208,6.875 12.14637,17.10725 16.83174,22.73834 4.68538,5.63109 8.80618,11.14359 9.15734,12.25 0.35116,1.10641 0.33891,3.02416 -0.0272,4.26166 -0.36613,1.2375 -8.38396,10.05838 -17.81739,19.60197 -9.43344,9.54358 -18.59975,17.98108 -20.36958,18.75 -1.76984,0.76891 -3.56984,1.37773 -4,1.35293 z M 632.5,225 c 0.275,0 0.5,-0.225 0.5,-0.5 0,-0.275 -0.225,-0.5 -0.5,-0.5 -0.275,0 -0.5,0.225 -0.5,0.5 0,0.275 0.225,0.5 0.5,0.5 z" id="path15"></path>
      <path style="display:inline;fill:#99f6e4;fill-opacity:1" d="m 252.28212,753.9549 c -0.43017,-0.0248 -1.9959,-0.58731 -3.47941,-1.25 -1.48351,-0.6627 -5.68073,-4.5799 -9.32716,-8.7049 -3.64642,-4.125 -10.08264,-12.07691 -14.30271,-17.67091 -4.22006,-5.594 -10.55417,-14.80071 -14.0758,-20.45936 -3.52162,-5.65865 -9.92361,-17.07766 -14.22663,-25.37559 -4.30302,-8.29793 -9.84204,-19.90468 -12.30893,-25.79276 -2.46689,-5.88809 -6.55663,-17.11716 -9.08831,-24.9535 C 172.94149,621.91155 169.78256,611 168.45334,605.5 c -1.32923,-5.5 -3.29902,-15.18018 -4.3773,-21.51151 -1.07829,-6.33133 -2.44534,-15.41304 -3.0379,-20.18158 -0.59256,-4.76854 -1.49317,-16.31313 -2.00136,-25.65464 -0.55667,-10.23283 -0.56567,-23.87514 -0.0226,-34.31841 0.49574,-9.53363 1.81028,-23.77503 2.9212,-31.64757 1.11093,-7.87254 3.63584,-21.54962 5.61092,-30.3935 1.97508,-8.84389 5.81661,-22.95342 8.53674,-31.35451 2.72013,-8.4011 6.76199,-19.63884 8.98191,-24.97277 2.21992,-5.33392 6.69065,-14.99329 9.93495,-21.46527 3.2443,-6.47197 8.23414,-15.75715 11.08854,-20.63373 2.8544,-4.87658 8.55753,-13.91497 12.67363,-20.0853 4.1161,-6.17034 11.366,-16.06663 16.11088,-21.99176 4.74489,-5.92513 14.69282,-17.01039 22.10652,-24.63391 7.4137,-7.62352 18.4387,-18.01542 24.5,-23.09311 6.0613,-5.0777 15.52055,-12.41777 21.02055,-16.31127 5.5,-3.8935 14.95,-10.07847 21,-13.74439 6.05,-3.66591 17.89031,-10.01931 26.3118,-14.11866 8.42149,-4.09935 19.67149,-9.18489 25,-11.3012 5.32851,-2.11631 14.79653,-5.49414 21.04005,-7.50628 6.24351,-2.01214 17.63067,-5.20016 25.30479,-7.08449 7.67412,-1.88434 18.99079,-4.3372 25.14815,-5.4508 6.15737,-1.11361 17.04521,-2.71764 24.19521,-3.56452 7.15,-0.84688 21.325,-1.81316 31.5,-2.14729 11.01262,-0.36164 24.77321,-0.13035 34,0.57146 8.525,0.64844 21.14242,2.03545 28.03872,3.08226 6.89629,1.0468 16.79629,2.82461 22,3.95069 9.46128,2.04741 9.46128,2.04741 28.71128,21.40296 10.5875,10.64555 19.25,19.91695 19.25,20.60311 0,0.68616 -5.67283,7.02513 -12.60629,14.08661 -11.93928,12.15973 -12.74618,12.78538 -15.25,11.82459 -1.45404,-0.55796 -10.0239,-2.80927 -19.04413,-5.00292 -9.02024,-2.19365 -22.29524,-4.89949 -29.5,-6.01298 -9.36334,-1.44709 -20.23004,-2.17275 -38.09958,-2.54422 -19.50639,-0.4055 -28.18629,-0.15537 -39.5,1.13825 -7.975,0.91188 -20.0745,2.77757 -26.88777,4.14599 -6.81327,1.36842 -17.3431,3.86344 -23.39961,5.54449 -6.0565,1.68105 -16.45701,5.0747 -23.11222,7.54144 -6.65522,2.46673 -18.12624,7.45421 -25.49116,11.08327 -7.36493,3.62907 -18.95923,10.08617 -25.76512,14.34911 -6.80589,4.26294 -17.18702,11.4974 -23.06917,16.07658 -5.88216,4.57918 -17.49796,15.07578 -25.81291,23.32578 -8.31495,8.25 -18.15543,18.825 -21.86775,23.5 -3.71232,4.675 -10.05871,13.45 -14.1031,19.5 -4.04439,6.05 -10.51773,16.81613 -14.3852,23.92474 -3.86747,7.10861 -9.25327,18.35861 -11.96844,25 -2.7152,6.64139 -6.36697,16.57526 -8.11507,22.07526 -1.74809,5.5 -4.25747,14.5 -5.57638,20 -1.31891,5.5 -3.30126,15.625 -4.40521,22.5 -1.10395,6.875 -2.44223,20.20945 -2.97396,29.6321 -0.62375,11.0534 -0.62232,22.58484 0.004,32.5 0.53395,8.45235 1.66023,20.0929 2.50284,25.8679 0.84262,5.775 2.665,15.675 4.04973,22 1.38474,6.325 4.46154,17.35 6.83733,24.5 2.37579,7.15 6.64113,18.4 9.47853,25 2.83741,6.6 7.20551,15.825 9.70691,20.5 2.5014,4.675 8.2888,14.125 12.86089,21 4.57208,6.875 12.14637,17.10725 16.83174,22.73834 4.68538,5.63109 8.80618,11.14359 9.15734,12.25 0.35116,1.10641 0.33891,3.02416 -0.0272,4.26166 -0.36613,1.2375 -8.38396,10.05838 -17.81739,19.60197 -9.43344,9.54358 -18.59975,17.98108 -20.36958,18.75 -1.76984,0.76891 -3.56984,1.37773 -4,1.35293 z" id="path14"></path>
    </g>
  </g>
</svg>